<svg xmlns="http://www.w3.org/2000/svg" height="250" viewBox="0 0 1704 681"><g clip-path="url(#clip-D373B3ED-3ECA-452E-B829-DAB61E8D58F9)"><path fill="#48c182" fill-opacity=".2" d="M2 633l163.68-100.994a114 114 0 01102.102-8.867l106.225 42.375a114 114 0 00101.678-8.607l153.708-93.916a112 112 0 0121.283-10.1l159.074-55.867a112 112 0 0183.084 3.543l99.399 44.743c43.578 19.616 94.727 10.499 128.844-22.966l134.11-131.548a108 108 0 0151.604-28.194l151.782-34.63a108 108 0 0053.126-29.716L1702 4v690.137H2"/></g><path fill="none" stroke="#48c182" stroke-linecap="square" stroke-miterlimit="50" stroke-width="2" d="M2 631v0l163.68-100.994a114 114 0 01102.102-8.867l106.225 42.375a114 114 0 00101.678-8.607l153.708-93.916a112 112 0 0121.283-10.1l159.074-55.867a112 112 0 0183.084 3.543l99.399 44.743c43.578 19.616 94.727 10.499 128.844-22.966l134.11-131.548a108 108 0 0151.604-28.194l151.782-34.63a108 108 0 0053.126-29.716L1702 2v0"/></svg>