<svg xmlns="http://www.w3.org/2000/svg" width="202" height="201"><defs><clipPath id="98a1a"><path d="M100.778 200.677c55.366 0 100.249-44.883 100.249-100.249C201.027 45.063 156.144.18 100.778.18 45.413.18.53 45.063.53 100.428c0 55.366 44.883 100.249 100.248 100.249z"/></clipPath></defs><g clip-path="url(#98a1a)" opacity=".8" transform="rotate(-315 105.5 102.5)"><path fill="none" stroke="#48c182" stroke-linecap="square" stroke-miterlimit="50" d="M78.764-5.748v209.25M-3.786-5.748v209.25m153.32-209.25v209.25M66.974-5.748v209.25m47.18-209.25v209.25M31.594-5.748v209.25m153.32-209.25v209.25M96.464-5.748v209.25M13.904-5.748v209.25m153.32-209.25v209.25m-35.38-209.25v209.25M49.284-5.748v209.25m153.32-209.25v209.25M84.664-5.748v209.25M2.104-5.748v209.25m153.32-209.25v209.25M72.874-5.748v209.25m47.17-209.25v209.25M37.494-5.748v209.25m153.32-209.25v209.25m-88.46-209.25v209.25M19.794-5.748v209.25m153.33-209.25v209.25m-35.39-209.25v209.25M55.184-5.748v209.25m153.32-209.25v209.25M90.564-5.748v209.25M8.004-5.748v209.25m153.32-209.25v209.25m-35.38-209.25v209.25M43.384-5.748v209.25m153.32-209.25v209.25m-88.45-209.25v209.25M25.694-5.748v209.25m153.32-209.25v209.25m-35.38-209.25v209.25M61.074-5.748v209.25m153.32-209.25v209.25" opacity=".8"/></g></svg>