<svg xmlns="http://www.w3.org/2000/svg" width="810" height="274"><path fill="none" stroke="#48c182" stroke-linecap="square" stroke-miterlimit="50" stroke-width="2" d="M-153.25 413.5v0L49.493 218.761c68.374-65.675 173.83-73.333 250.975-18.226l49.186 35.134c79.514 56.799 188.647 46.726 256.421-23.666L808.75 1.5v0"/><g opacity=".08"><path fill="#48c182" d="M608.908 235.405c15.413 0 27.907-12.494 27.907-27.907s-12.494-27.908-27.907-27.908S581 192.085 581 207.498c0 15.413 12.495 27.907 27.908 27.907z"/><path fill="none" stroke="#48c182" stroke-miterlimit="50" stroke-width="2" d="M608.908 235.405c15.413 0 27.907-12.494 27.907-27.907s-12.494-27.908-27.907-27.908S581 192.085 581 207.498c0 15.413 12.495 27.907 27.908 27.907z"/></g><g opacity=".08"><path fill="#48c182" d="M608.91 221.5c7.732 0 14-6.268 14-14s-6.268-14-14-14-14 6.268-14 14 6.268 14 14 14z"/><path fill="none" stroke="#48c182" stroke-miterlimit="50" stroke-width="2" d="M608.91 221.5c7.732 0 14-6.268 14-14s-6.268-14-14-14-14 6.268-14 14 6.268 14 14 14z"/></g><path fill="#48c182" d="M608.907 214.474a6.977 6.977 0 100-13.954 6.977 6.977 0 000 13.954z"/><path fill="none" stroke="#48c182" stroke-miterlimit="50" stroke-width="2" d="M608.907 214.474a6.977 6.977 0 100-13.954 6.977 6.977 0 000 13.954z"/></svg>