<svg xmlns="http://www.w3.org/2000/svg" width="202" height="201" viewBox="0 0 202 201"><defs><clipPath id="98a1a"><path d="M100.778 200.677c55.366 0 100.249-44.883 100.249-100.249C201.027 45.063 156.144.18 100.778.18 45.413.18.53 45.063.53 100.428c0 55.366 44.883 100.249 100.248 100.249z"/></clipPath></defs><g><g opacity=".8" transform="rotate(-315 105.5 102.5)"><g opacity=".8"/><g clip-path="url(#98a1a)" opacity=".8"><g opacity=".8"><path fill="none" stroke="#48c182" stroke-linecap="square" stroke-miterlimit="50" d="M78.764-5.748v209.25"/></g><g opacity=".8"><path fill="none" stroke="#48c182" stroke-linecap="square" stroke-miterlimit="50" d="M-3.786-5.748v209.25"/></g><g opacity=".8"><path fill="none" stroke="#48c182" stroke-linecap="square" stroke-miterlimit="50" d="M149.534-5.748v209.25"/></g><g opacity=".8"><path fill="none" stroke="#48c182" stroke-linecap="square" stroke-miterlimit="50" d="M66.974-5.748v209.25"/></g><g opacity=".8"><path fill="none" stroke="#48c182" stroke-linecap="square" stroke-miterlimit="50" d="M114.154-5.748v209.25"/></g><g opacity=".8"><path fill="none" stroke="#48c182" stroke-linecap="square" stroke-miterlimit="50" d="M31.594-5.748v209.25"/></g><g opacity=".8"><path fill="none" stroke="#48c182" stroke-linecap="square" stroke-miterlimit="50" d="M184.914-5.748v209.25"/></g><g opacity=".8"><path fill="none" stroke="#48c182" stroke-linecap="square" stroke-miterlimit="50" d="M96.464-5.748v209.25"/></g><g opacity=".8"><path fill="none" stroke="#48c182" stroke-linecap="square" stroke-miterlimit="50" d="M13.904-5.748v209.25"/></g><g opacity=".8"><path fill="none" stroke="#48c182" stroke-linecap="square" stroke-miterlimit="50" d="M167.224-5.748v209.25"/></g><g opacity=".8"><path fill="none" stroke="#48c182" stroke-linecap="square" stroke-miterlimit="50" d="M131.844-5.748v209.25"/></g><g opacity=".8"><path fill="none" stroke="#48c182" stroke-linecap="square" stroke-miterlimit="50" d="M49.284-5.748v209.25"/></g><g opacity=".8"><path fill="none" stroke="#48c182" stroke-linecap="square" stroke-miterlimit="50" d="M202.604-5.748v209.25"/></g><g opacity=".8"><path fill="none" stroke="#48c182" stroke-linecap="square" stroke-miterlimit="50" d="M84.664-5.748v209.25"/></g><g opacity=".8"><path fill="none" stroke="#48c182" stroke-linecap="square" stroke-miterlimit="50" d="M2.104-5.748v209.25"/></g><g opacity=".8"><path fill="none" stroke="#48c182" stroke-linecap="square" stroke-miterlimit="50" d="M155.424-5.748v209.25"/></g><g opacity=".8"><path fill="none" stroke="#48c182" stroke-linecap="square" stroke-miterlimit="50" d="M72.874-5.748v209.25"/></g><g opacity=".8"><path fill="none" stroke="#48c182" stroke-linecap="square" stroke-miterlimit="50" d="M120.044-5.748v209.25"/></g><g opacity=".8"><path fill="none" stroke="#48c182" stroke-linecap="square" stroke-miterlimit="50" d="M37.494-5.748v209.25"/></g><g opacity=".8"><path fill="none" stroke="#48c182" stroke-linecap="square" stroke-miterlimit="50" d="M190.814-5.748v209.25"/></g><g opacity=".8"><path fill="none" stroke="#48c182" stroke-linecap="square" stroke-miterlimit="50" d="M102.354-5.748v209.25"/></g><g opacity=".8"><path fill="none" stroke="#48c182" stroke-linecap="square" stroke-miterlimit="50" d="M19.794-5.748v209.25"/></g><g opacity=".8"><path fill="none" stroke="#48c182" stroke-linecap="square" stroke-miterlimit="50" d="M173.124-5.748v209.25"/></g><g opacity=".8"><path fill="none" stroke="#48c182" stroke-linecap="square" stroke-miterlimit="50" d="M137.734-5.748v209.25"/></g><g opacity=".8"><path fill="none" stroke="#48c182" stroke-linecap="square" stroke-miterlimit="50" d="M55.184-5.748v209.25"/></g><g opacity=".8"><path fill="none" stroke="#48c182" stroke-linecap="square" stroke-miterlimit="50" d="M208.504-5.748v209.25"/></g><g opacity=".8"><path fill="none" stroke="#48c182" stroke-linecap="square" stroke-miterlimit="50" d="M90.564-5.748v209.25"/></g><g opacity=".8"><path fill="none" stroke="#48c182" stroke-linecap="square" stroke-miterlimit="50" d="M8.004-5.748v209.25"/></g><g opacity=".8"><path fill="none" stroke="#48c182" stroke-linecap="square" stroke-miterlimit="50" d="M161.324-5.748v209.25"/></g><g opacity=".8"><path fill="none" stroke="#48c182" stroke-linecap="square" stroke-miterlimit="50" d="M125.944-5.748v209.25"/></g><g opacity=".8"><path fill="none" stroke="#48c182" stroke-linecap="square" stroke-miterlimit="50" d="M43.384-5.748v209.25"/></g><g opacity=".8"><path fill="none" stroke="#48c182" stroke-linecap="square" stroke-miterlimit="50" d="M196.704-5.748v209.25"/></g><g opacity=".8"><path fill="none" stroke="#48c182" stroke-linecap="square" stroke-miterlimit="50" d="M108.254-5.748v209.25"/></g><g opacity=".8"><path fill="none" stroke="#48c182" stroke-linecap="square" stroke-miterlimit="50" d="M25.694-5.748v209.25"/></g><g opacity=".8"><path fill="none" stroke="#48c182" stroke-linecap="square" stroke-miterlimit="50" d="M179.014-5.748v209.25"/></g><g opacity=".8"><path fill="none" stroke="#48c182" stroke-linecap="square" stroke-miterlimit="50" d="M143.634-5.748v209.25"/></g><g opacity=".8"><path fill="none" stroke="#48c182" stroke-linecap="square" stroke-miterlimit="50" d="M61.074-5.748v209.25"/></g><g opacity=".8"><path fill="none" stroke="#48c182" stroke-linecap="square" stroke-miterlimit="50" d="M214.394-5.748v209.25"/></g></g></g></g></svg>